<svg viewBox="521.5 550.3839 380 135.2321" width="5000" height="1779.369736842105" xmlns="http://www.w3.org/2000/svg" xmlns:xlink="http://www.w3.org/1999/xlink" preserveAspectRatio="none"><defs></defs><style>.companyName {fill:#1e1e1e;fill-opacity:1;}.icon1 {fill:#EB3F3F;fill-opacity:1;}.icon3-str {stroke:#848383;stroke-opacity:1;}.shapeStroke-str {stroke:#1e1e1e;stroke-opacity:1;}.text {fill:#1e1e1e;fill-opacity:1;}</style><g opacity="1" transform="rotate(0 521.5 664.7796)">
<svg width="174.4042" height="20.8364" x="521.5" y="664.7796" version="1.1" preserveAspectRatio="none" viewBox="3.32 -31.48 331.12 39.56">
  <g transform="matrix(1 0 0 1 0 0)" class="text"><path id="id-6izo4zJp13" d="M23.88-14.56Q26.28-13.80 27.64-12.02Q29-10.24 29-7.64L29-7.64Q29-3.96 26.14-1.98Q23.28 0 17.80 0L17.80 0L3.32 0L3.32-28L17-28Q22.12-28 24.86-26.04Q27.60-24.08 27.60-20.72L27.60-20.72Q27.60-18.68 26.62-17.08Q25.64-15.48 23.88-14.56L23.88-14.56ZM16.20-23.12L9.76-23.12L9.76-16.52L16.20-16.52Q18.60-16.52 19.84-17.36Q21.08-18.20 21.08-19.84L21.08-19.84Q21.08-21.48 19.84-22.30Q18.60-23.12 16.20-23.12L16.20-23.12ZM17.32-4.88Q19.88-4.88 21.18-5.72Q22.48-6.56 22.48-8.32L22.48-8.32Q22.48-11.80 17.32-11.80L17.32-11.80L9.76-11.80L9.76-4.88L17.32-4.88Z M41.04-18.68Q42.16-20.24 44.06-21.04Q45.96-21.84 48.44-21.84L48.44-21.84L48.44-16.08Q47.40-16.16 47.04-16.16L47.04-16.16Q44.36-16.16 42.84-14.66Q41.32-13.16 41.32-10.16L41.32-10.16L41.32 0L35.08 0L35.08-21.52L41.04-21.52L41.04-18.68Z M53.76 0L53.76-21.52L60.00-21.52L60.00 0L53.76 0ZM56.88-24.52Q55.16-24.52 54.08-25.52Q53.00-26.52 53.00-28L53.00-28Q53.00-29.48 54.08-30.48Q55.16-31.48 56.88-31.48L56.88-31.48Q58.60-31.48 59.68-30.52Q60.76-29.56 60.76-28.12L60.76-28.12Q60.76-26.56 59.68-25.54Q58.60-24.52 56.88-24.52L56.88-24.52Z M83.08-29.68L89.32-29.68L89.32 0L83.36 0L83.36-2.48Q81.04 0.32 76.64 0.32L76.64 0.32Q73.60 0.32 71.14-1.04Q68.68-2.40 67.28-4.92Q65.88-7.44 65.88-10.76L65.88-10.76Q65.88-14.08 67.28-16.60Q68.68-19.12 71.14-20.48Q73.60-21.84 76.64-21.84L76.64-21.84Q80.76-21.84 83.08-19.24L83.08-19.24L83.08-29.68ZM77.72-4.80Q80.08-4.80 81.64-6.42Q83.20-8.04 83.20-10.76L83.20-10.76Q83.20-13.48 81.64-15.10Q80.08-16.72 77.72-16.72L77.72-16.72Q75.32-16.72 73.76-15.10Q72.20-13.48 72.20-10.76L72.20-10.76Q72.20-8.04 73.76-6.42Q75.32-4.80 77.72-4.80L77.72-4.80Z M112.96-21.52L118.88-21.52L118.88-3.60Q118.88 2.32 115.80 5.20Q112.72 8.08 106.80 8.08L106.80 8.08Q103.68 8.08 100.88 7.32Q98.08 6.56 96.24 5.12L96.24 5.12L98.72 0.64Q100.08 1.76 102.16 2.42Q104.24 3.08 106.32 3.08L106.32 3.08Q109.56 3.08 111.10 1.62Q112.64 0.16 112.64-2.80L112.64-2.80L112.64-3.72Q110.20-1.04 105.84-1.04L105.84-1.04Q102.88-1.04 100.42-2.34Q97.96-3.64 96.52-6Q95.08-8.36 95.08-11.44L95.08-11.44Q95.08-14.52 96.52-16.88Q97.96-19.24 100.42-20.54Q102.88-21.84 105.84-21.84L105.84-21.84Q110.52-21.84 112.96-18.76L112.96-18.76L112.96-21.52ZM107.08-6.16Q109.56-6.16 111.14-7.62Q112.72-9.08 112.72-11.44L112.72-11.44Q112.72-13.80 111.14-15.26Q109.56-16.72 107.08-16.72L107.08-16.72Q104.60-16.72 103.00-15.26Q101.40-13.80 101.40-11.44L101.40-11.44Q101.40-9.08 103.00-7.62Q104.60-6.16 107.08-6.16L107.08-6.16Z M147.36-10.68Q147.36-10.56 147.24-9L147.24-9L130.96-9Q131.40-7 133.04-5.84Q134.68-4.68 137.12-4.68L137.12-4.68Q138.80-4.68 140.10-5.18Q141.40-5.68 142.52-6.76L142.52-6.76L145.84-3.16Q142.80 0.32 136.96 0.32L136.96 0.32Q133.32 0.32 130.52-1.10Q127.72-2.52 126.20-5.04Q124.68-7.56 124.68-10.76L124.68-10.76Q124.68-13.92 126.18-16.46Q127.68-19 130.30-20.42Q132.92-21.84 136.16-21.84L136.16-21.84Q139.32-21.84 141.88-20.48Q144.44-19.12 145.90-16.58Q147.36-14.04 147.36-10.68L147.36-10.68ZM136.20-17.12Q134.08-17.12 132.64-15.92Q131.20-14.72 130.88-12.64L130.88-12.64L141.48-12.64Q141.16-14.68 139.72-15.90Q138.28-17.12 136.20-17.12L136.20-17.12Z M166.48 0L166.48-28L179.20-28Q183.76-28 187.26-26.26Q190.76-24.52 192.70-21.36Q194.64-18.20 194.64-14L194.64-14Q194.64-9.80 192.70-6.64Q190.76-3.48 187.26-1.74Q183.76 0 179.20 0L179.20 0L166.48 0ZM172.96-5.32L178.88-5.32Q183.08-5.32 185.58-7.66Q188.08-10 188.08-14L188.08-14Q188.08-18 185.58-20.34Q183.08-22.68 178.88-22.68L178.88-22.68L172.96-22.68L172.96-5.32Z M221.76-10.68Q221.76-10.56 221.64-9L221.64-9L205.36-9Q205.80-7 207.44-5.84Q209.08-4.68 211.52-4.68L211.52-4.68Q213.20-4.68 214.50-5.18Q215.80-5.68 216.92-6.76L216.92-6.76L220.24-3.16Q217.20 0.32 211.36 0.32L211.36 0.32Q207.72 0.32 204.92-1.10Q202.12-2.52 200.60-5.04Q199.08-7.56 199.08-10.76L199.08-10.76Q199.08-13.92 200.58-16.46Q202.08-19 204.70-20.42Q207.32-21.84 210.56-21.84L210.56-21.84Q213.72-21.84 216.28-20.48Q218.84-19.12 220.30-16.58Q221.76-14.04 221.76-10.68L221.76-10.68ZM210.60-17.12Q208.48-17.12 207.04-15.92Q205.60-14.72 205.28-12.64L205.28-12.64L215.88-12.64Q215.56-14.68 214.12-15.90Q212.68-17.12 210.60-17.12L210.60-17.12Z M242.48-21.52L248.48-21.52L239.40 0L232.96 0L223.92-21.52L230.36-21.52L236.32-6.88L242.48-21.52Z M266.48 0.48Q262.12 0.48 258.62-1.40Q255.12-3.28 253.14-6.58Q251.16-9.88 251.16-14L251.16-14Q251.16-18.12 253.14-21.42Q255.12-24.72 258.62-26.60Q262.12-28.48 266.48-28.48L266.48-28.48Q270.84-28.48 274.32-26.60Q277.80-24.72 279.80-21.42Q281.80-18.12 281.80-14L281.80-14Q281.80-9.88 279.80-6.58Q277.80-3.28 274.32-1.40Q270.84 0.48 266.48 0.48L266.48 0.48ZM266.48-5.04Q268.96-5.04 270.96-6.18Q272.96-7.32 274.10-9.36Q275.24-11.40 275.24-14L275.24-14Q275.24-16.60 274.10-18.64Q272.96-20.68 270.96-21.82Q268.96-22.96 266.48-22.96L266.48-22.96Q264.00-22.96 262.00-21.82Q260.00-20.68 258.86-18.64Q257.72-16.60 257.72-14L257.72-14Q257.72-11.40 258.86-9.36Q260.00-7.32 262.00-6.18Q264.00-5.04 266.48-5.04L266.48-5.04Z M300.56-21.84Q303.56-21.84 306.02-20.46Q308.48-19.08 309.88-16.58Q311.28-14.08 311.28-10.76L311.28-10.76Q311.28-7.44 309.88-4.94Q308.48-2.44 306.02-1.06Q303.56 0.32 300.56 0.32L300.56 0.32Q296.44 0.32 294.08-2.28L294.08-2.28L294.08 7.76L287.84 7.76L287.84-21.52L293.80-21.52L293.80-19.04Q296.12-21.84 300.56-21.84L300.56-21.84ZM299.48-4.80Q301.88-4.80 303.42-6.42Q304.96-8.04 304.96-10.76L304.96-10.76Q304.96-13.48 303.42-15.10Q301.88-16.72 299.48-16.72L299.48-16.72Q297.08-16.72 295.54-15.10Q294-13.48 294-10.76L294-10.76Q294-8.04 295.54-6.42Q297.08-4.80 299.48-4.80L299.48-4.80Z M324.28 0.32Q321.60 0.32 319.04-0.34Q316.48-1 314.96-2L314.96-2L317.04-6.48Q318.48-5.56 320.52-4.98Q322.56-4.40 324.52-4.40L324.52-4.40Q328.48-4.40 328.48-6.36L328.48-6.36Q328.48-7.28 327.40-7.68Q326.32-8.08 324.08-8.36L324.08-8.36Q321.44-8.76 319.72-9.28Q318-9.80 316.74-11.12Q315.48-12.44 315.48-14.88L315.48-14.88Q315.48-16.92 316.66-18.50Q317.84-20.08 320.10-20.96Q322.36-21.84 325.44-21.84L325.44-21.84Q327.72-21.84 329.98-21.34Q332.24-20.84 333.72-19.96L333.72-19.96L331.64-15.52Q328.80-17.12 325.44-17.12L325.44-17.12Q323.44-17.12 322.44-16.56Q321.44-16 321.44-15.12L321.44-15.12Q321.44-14.12 322.52-13.72Q323.60-13.32 325.96-12.96L325.96-12.96Q328.60-12.52 330.28-12.02Q331.96-11.52 333.20-10.20Q334.44-8.88 334.44-6.52L334.44-6.52Q334.44-4.52 333.24-2.96Q332.04-1.40 329.74-0.54Q327.44 0.32 324.28 0.32L324.28 0.32Z"/></g>
</svg>
</g><g opacity="1" transform="rotate(0 521.5 591.2395)">
<svg width="380" height="61.2834" x="521.5" y="591.2395" version="1.1" preserveAspectRatio="none" viewBox="2.28 -32.84 207.6 33.480000000000004">
  <g transform="matrix(1 0 0 1 0 0)" class="companyName"><path id="id-D6z1nYkh9" d="M15.76-28Q19.64-28 22.52-26.72Q25.40-25.44 26.96-23.04Q28.52-20.64 28.52-17.44L28.52-17.44Q28.52-14.24 26.96-11.84Q25.40-9.44 22.52-8.16Q19.64-6.88 15.76-6.88L15.76-6.88L11.72-6.88L11.72 0L2.28 0L2.28-28L15.76-28ZM15.16-14.16Q17.08-14.16 18.04-15.02Q19-15.88 19-17.44L19-17.44Q19-19 18.04-19.86Q17.08-20.72 15.16-20.72L15.16-20.72L11.72-20.72L11.72-14.16L15.16-14.16Z M42.88 0.40Q39.24 0.40 36.34-1.06Q33.44-2.52 31.80-5.10Q30.16-7.68 30.16-10.96L30.16-10.96Q30.16-14.24 31.80-16.82Q33.44-19.40 36.34-20.84Q39.24-22.28 42.88-22.28L42.88-22.28Q46.56-22.28 49.46-20.84Q52.36-19.40 53.98-16.82Q55.60-14.24 55.60-10.96L55.60-10.96Q55.60-7.68 53.98-5.10Q52.36-2.52 49.46-1.06Q46.56 0.40 42.88 0.40L42.88 0.40ZM42.88-6.64Q44.44-6.64 45.44-7.78Q46.44-8.92 46.44-10.96L46.44-10.96Q46.44-13 45.44-14.12Q44.44-15.24 42.88-15.24L42.88-15.24Q41.32-15.24 40.32-14.12Q39.32-13 39.32-10.96L39.32-10.96Q39.32-8.92 40.32-7.78Q41.32-6.64 42.88-6.64L42.88-6.64Z M58.44 0L58.44-21.88L67.48-21.88L67.48 0L58.44 0ZM62.96-23.64Q60.52-23.64 59.02-24.94Q57.52-26.24 57.52-28.24L57.52-28.24Q57.52-30.24 59.02-31.54Q60.52-32.84 62.96-32.84L62.96-32.84Q65.44-32.84 66.92-31.60Q68.40-30.36 68.40-28.40L68.40-28.40Q68.40-26.32 66.92-24.98Q65.44-23.64 62.96-23.64L62.96-23.64Z M86.68-22.28Q90.72-22.28 93.18-19.84Q95.64-17.40 95.64-12.48L95.64-12.48L95.64 0L86.60 0L86.60-10.92Q86.60-14.68 83.92-14.68L83.92-14.68Q82.40-14.68 81.46-13.62Q80.52-12.56 80.52-10.28L80.52-10.28L80.52 0L71.48 0L71.48-21.88L80.08-21.88L80.08-19.72Q81.36-21 83.04-21.64Q84.72-22.28 86.68-22.28L86.68-22.28Z M113.52-7.04L115.68-0.76Q113.64 0.40 110.12 0.40L110.12 0.40Q105.52 0.40 103.04-1.82Q100.56-4.04 100.56-8.48L100.56-8.48L100.56-14.08L97.56-14.08L97.56-20.68L100.56-20.68L100.56-26.80L109.60-26.80L109.60-20.68L114.08-20.68L114.08-14.08L109.60-14.08L109.60-8.56Q109.60-7.56 110.12-7Q110.64-6.44 111.48-6.44L111.48-6.44Q112.64-6.44 113.52-7.04L113.52-7.04Z M136.76-7.68L136.76-14.76L144.96-14.76L144.96-2.92Q142.48-1.20 139.20-0.28Q135.92 0.64 132.76 0.64L132.76 0.64Q128.28 0.64 124.72-1.22Q121.16-3.08 119.14-6.42Q117.12-9.76 117.12-14L117.12-14Q117.12-18.24 119.14-21.58Q121.16-24.92 124.78-26.78Q128.40-28.64 132.96-28.64L132.96-28.64Q137.08-28.64 140.34-27.26Q143.60-25.88 145.76-23.24L145.76-23.24L139.72-17.92Q137.08-21 133.44-21L133.44-21Q130.32-21 128.48-19.12Q126.64-17.24 126.64-14L126.64-14Q126.64-10.84 128.46-8.92Q130.28-7 133.32-7L133.32-7Q135.12-7 136.76-7.68L136.76-7.68Z M160.28 0.40Q156.64 0.40 153.74-1.06Q150.84-2.52 149.20-5.10Q147.56-7.68 147.56-10.96L147.56-10.96Q147.56-14.24 149.20-16.82Q150.84-19.40 153.74-20.84Q156.64-22.28 160.28-22.28L160.28-22.28Q163.96-22.28 166.86-20.84Q169.76-19.40 171.38-16.82Q173-14.24 173-10.96L173-10.96Q173-7.68 171.38-5.10Q169.76-2.52 166.86-1.06Q163.96 0.40 160.28 0.40L160.28 0.40ZM160.28-6.64Q161.84-6.64 162.84-7.78Q163.84-8.92 163.84-10.96L163.84-10.96Q163.84-13 162.84-14.12Q161.84-15.24 160.28-15.24L160.28-15.24Q158.72-15.24 157.72-14.12Q156.72-13 156.72-10.96L156.72-10.96Q156.72-8.92 157.72-7.78Q158.72-6.64 160.28-6.64L160.28-6.64Z M185.08-22.28Q190.84-22.28 193.88-19.70Q196.92-17.12 196.92-11.76L196.92-11.76L196.92 0L188.52 0L188.52-2.88Q186.96 0.40 182.32 0.40L182.32 0.40Q179.72 0.40 177.90-0.50Q176.08-1.40 175.14-2.94Q174.20-4.48 174.20-6.40L174.20-6.40Q174.20-9.64 176.68-11.32Q179.16-13 184.20-13L184.20-13L187.84-13Q187.40-15.56 183.72-15.56L183.72-15.56Q182.24-15.56 180.72-15.10Q179.20-14.64 178.12-13.84L178.12-13.84L175.24-19.80Q177.12-20.96 179.78-21.62Q182.44-22.28 185.08-22.28L185.08-22.28ZM185.04-5.04Q186-5.04 186.76-5.56Q187.52-6.08 187.88-7.12L187.88-7.12L187.88-8.64L185.64-8.64Q182.88-8.64 182.88-6.80L182.88-6.80Q182.88-6.04 183.46-5.54Q184.04-5.04 185.04-5.04L185.04-5.04Z M200.84 0L200.84-29.68L209.88-29.68L209.88 0L200.84 0Z"/></g>
</svg>
</g><g opacity="1" transform="rotate(0 521.5 550.3839)">
<svg width="132.7808" height="22.4706" x="521.5" y="550.3839" version="1.1" preserveAspectRatio="none" viewBox="0 0 132.7808 22.4706">
  <rect x="0" y="0" width="132.7808" height="22.4706" class="icon1 shapeStroke-str" style="stroke-width:0;" rx="0%" ry="0%" />
</svg>
</g></svg>